<svg width="26" height="14" viewBox="0 0 26 14" fill="none" xmlns="http://www.w3.org/2000/svg">
<path d="M7.8 6.9998C7.8 5.7998 8.2 4.5998 9 3.6998L7.6 2.2998C6.5 3.5998 5.8 5.2998 5.8 6.9998C5.8 8.8998 6.6 10.6998 7.9 11.9998L9.3 10.5998C8.4 9.5998 7.8 8.3998 7.8 6.9998ZM18.8 3.2998L18 3.8998L17.3 4.5998C17.7 5.2998 17.9 6.0998 17.9 6.9998C17.9 9.7998 15.7 11.9998 12.9 11.9998C12 11.9998 11.3 11.7998 10.5 11.3998L9 12.7998C10.1 13.4998 11.4 13.8998 12.8 13.8998C16.7 13.8998 19.8 10.7998 19.8 6.89981C19.8 5.69981 19.5 4.3998 18.8 3.2998Z" fill="black"/>
<path d="M12.8 4C11.1 4 9.8 5.3 9.8 7C9.8 7.8 10.1 8.6 10.7 9.1L15 4.9C14.4 4.3 13.7 4 12.8 4ZM15.7 6.1L12 9.9C12.3 10 12.6 10 12.9 10C14.6 10 15.9 8.7 15.9 7C15.8 6.7 15.8 6.4 15.7 6.1Z" fill="black"/>
<path d="M17.8 0H19.8L5.8 14H3.8L17.8 0Z" fill="black"/>
<path d="M12.8 3C4.1 3 0.2 9.2 0 9.5L1.7 10.6C1.7 10.5 5.2 5 12.8 5C13.5 5 14.1 5.1 14.7 5.1L16.4 3.4C15.4 3.2 14.2 3 12.8 3ZM18 3.8L16.4 5.4C21.5 6.7 23.9 10.3 24 10.5L25.7 9.4C25.6 9.3 23.1 5.5 18 3.8Z" fill="black"/>
</svg>
