<svg width="22" height="22" viewBox="0 0 22 22" fill="none" xmlns="http://www.w3.org/2000/svg">
<path d="M16.7749 3.85C16.7291 3.85001 16.6833 3.85232 16.6376 3.85691C16.592 3.86149 16.5467 3.86835 16.5017 3.87746C16.4568 3.88655 16.4124 3.89789 16.3686 3.91142C16.3248 3.92496 16.2817 3.94069 16.2395 3.95855C16.1972 3.97641 16.1559 3.99638 16.1157 4.01837C16.0755 4.04034 16.0364 4.06431 15.9985 4.09018C15.9607 4.11608 15.9242 4.14385 15.8891 4.17339C15.854 4.20292 15.8205 4.23418 15.7886 4.26705C15.7566 4.29995 15.7263 4.33442 15.6978 4.37034C15.6693 4.40625 15.6427 4.44356 15.6179 4.48214C15.5931 4.5207 15.5703 4.56047 15.5495 4.60131C15.5287 4.64218 15.51 4.68406 15.4934 4.7268C15.4767 4.76952 15.4623 4.81304 15.45 4.8572C15.4378 4.90138 15.4277 4.94614 15.4199 4.99132C15.4121 5.03648 15.4066 5.08201 15.4034 5.12774C15.4011 5.16011 15.3999 5.19255 15.3999 5.225C15.3999 5.27085 15.4022 5.31668 15.4068 5.36231C15.4114 5.40791 15.4182 5.45327 15.4273 5.49819C15.4364 5.54312 15.4478 5.58757 15.4613 5.63136C15.4749 5.67516 15.4906 5.71824 15.5085 5.76046C15.5263 5.80269 15.5463 5.844 15.5683 5.88424C15.5902 5.92447 15.6142 5.96357 15.6401 6.00141C15.6659 6.03923 15.6937 6.07573 15.7232 6.11078C15.7528 6.14585 15.784 6.17941 15.8169 6.21135C15.8498 6.24329 15.8843 6.27357 15.9202 6.30206C15.9561 6.33056 15.9934 6.35725 16.032 6.38202C16.0706 6.40679 16.1104 6.42962 16.1512 6.45041C16.1921 6.47121 16.234 6.48996 16.2767 6.50657C16.3194 6.52319 16.3629 6.53765 16.4071 6.54992C16.4513 6.56217 16.496 6.5722 16.5412 6.57998C16.5864 6.58778 16.6319 6.59332 16.6776 6.59658C16.71 6.59886 16.7425 6.60001 16.7749 6.6C16.8207 6.60001 16.8666 6.59772 16.9122 6.59315C16.9578 6.58857 17.0031 6.58171 17.0481 6.5726C17.093 6.56349 17.1374 6.55213 17.1812 6.53858C17.225 6.52504 17.2681 6.50931 17.3103 6.49146C17.3526 6.47361 17.3939 6.45366 17.4341 6.43169C17.4743 6.4097 17.5134 6.38572 17.5513 6.35982C17.5891 6.33394 17.6256 6.30619 17.6607 6.27667C17.6958 6.24712 17.7293 6.21584 17.7612 6.18295C17.7932 6.15007 17.8235 6.11562 17.852 6.07972C17.8805 6.04381 17.9071 6.0065 17.9319 5.96792C17.9567 5.92934 17.9795 5.88955 18.0003 5.84869C18.0211 5.80784 18.0398 5.76598 18.0565 5.72326C18.0731 5.68052 18.0875 5.63698 18.0998 5.5928C18.112 5.54862 18.1221 5.50386 18.1299 5.45868C18.1377 5.41352 18.1432 5.36799 18.1465 5.32227C18.1488 5.28989 18.1499 5.25745 18.1499 5.225C18.1499 5.17917 18.1476 5.13336 18.143 5.08775C18.1384 5.04214 18.1316 4.99679 18.1225 4.95187C18.1134 4.90694 18.102 4.86249 18.0885 4.8187C18.0749 4.7749 18.0592 4.73182 18.0414 4.6896C18.0235 4.64737 18.0035 4.60605 17.9815 4.56582C17.9596 4.52559 17.9356 4.48648 17.9097 4.44865C17.8838 4.41081 17.8561 4.37429 17.8265 4.33922C17.797 4.30416 17.7658 4.27059 17.7329 4.23865C17.7 4.20671 17.6655 4.17643 17.6296 4.14794C17.5937 4.11946 17.5564 4.09279 17.5178 4.06803C17.4792 4.04327 17.4394 4.02044 17.3986 3.99965C17.3577 3.97885 17.3158 3.9601 17.2731 3.94349C17.2304 3.92687 17.1869 3.9124 17.1427 3.90014C17.0985 3.88787 17.0538 3.87782 17.0086 3.87002C16.9634 3.86224 16.9179 3.85672 16.8722 3.85348C16.8398 3.85118 16.8074 3.85001 16.7749 3.85Z" fill="white"/>
<rect x="1.1" y="1.1" width="19.8" height="19.8" rx="6.05" stroke="white" stroke-width="2.2"/>
<circle cx="11" cy="11" r="4.4" stroke="white" stroke-width="2.2"/>
</svg>
